<?xml version="1.0" standalone="no"?>
<!DOCTYPE svg PUBLIC "-//W3C//DTD SVG 20010904//EN"
 "http://www.w3.org/TR/2001/REC-SVG-20010904/DTD/svg10.dtd">
<svg version="1.0" xmlns="http://www.w3.org/2000/svg"
 width="752.000000pt" height="752.000000pt" viewBox="0 0 752.000000 752.000000"
 preserveAspectRatio="xMidYMid meet">
<metadata>
Created by potrace 1.14, written by Peter Selinger 2001-2017
</metadata>
<g transform="translate(0.000000,752.000000) scale(0.100000,-0.100000)"
fill="#000000" stroke="none">
<path d="M3890 5808 c-123 -9 -284 -47 -377 -89 l-66 -29 -54 20 c-66 25 -122
21 -248 -15 -642 -186 -1138 -816 -1284 -1630 -44 -248 -49 -551 -11 -785 99
-612 494 -1123 1078 -1394 156 -72 343 -130 508 -156 129 -21 180 -24 349 -24
618 2 1168 298 1546 829 117 164 239 405 326 645 37 103 98 335 109 415 3 28
8 53 10 56 9 15 18 174 18 299 -1 263 -47 453 -172 710 -54 109 -165 290 -221
356 -14 18 -37 47 -51 65 -28 37 -246 260 -297 301 -64 53 -182 138 -256 183
-131 79 -351 175 -462 201 -86 20 -182 36 -245 40 -41 3 -79 6 -85 8 -5 1 -57
-2 -115 -6z m295 -474 c322 -77 658 -340 898 -704 79 -119 175 -312 207 -415
80 -257 53 -529 -87 -894 -58 -152 -214 -470 -235 -479 -5 -2 -8 -8 -8 -14 0
-16 -109 -156 -169 -217 -176 -179 -414 -314 -695 -395 -124 -36 -202 -48
-346 -51 -220 -6 -415 37 -612 135 -393 195 -680 543 -803 971 -60 211 -67
469 -20 724 77 420 317 832 615 1059 62 47 153 106 164 106 4 0 24 -13 44 -30
74 -59 172 -75 247 -41 22 10 67 40 100 67 140 116 254 168 430 197 47 8 205
-3 270 -19z"/>
<path d="M3154 4501 c-55 -25 -81 -48 -110 -97 -33 -56 -40 -118 -20 -186 20
-71 67 -120 150 -159 115 -54 221 -37 294 47 112 126 66 307 -96 382 -75 34
-162 40 -218 13z"/>
<path d="M4418 4336 c-56 -20 -95 -56 -126 -118 -25 -47 -29 -66 -26 -112 9
-139 114 -229 262 -227 149 3 253 99 254 236 1 95 -75 201 -161 225 -50 14
-159 12 -203 -4z"/>
<path d="M3123 3511 c-86 -40 -144 -125 -151 -223 -6 -80 27 -146 116 -230
280 -264 704 -346 1034 -200 89 39 149 115 161 201 10 67 -37 166 -98 211 -73
54 -125 60 -237 26 -216 -66 -394 -26 -551 125 -39 39 -89 79 -109 90 -47 24
-111 24 -165 0z"/>
</g>
</svg>
